<mxfile host="app.diagrams.net" modified="2024-02-22T09:21:39.038Z" agent="Mozilla/5.0 (Windows NT 10.0; Win64; x64) AppleWebKit/537.36 (KHTML, like Gecko) Chrome/121.0.0.0 Safari/537.36" etag="9mG4x8JqqVr8qtd2mAMj" version="23.1.4" type="device">
  <diagram name="Seite-1" id="L7l5XfVgMkYsP65rfWYC">
    <mxGraphModel dx="1885" dy="1036" grid="1" gridSize="10" guides="1" tooltips="1" connect="1" arrows="1" fold="1" page="1" pageScale="1" pageWidth="827" pageHeight="1169" math="0" shadow="0">
      <root>
        <mxCell id="0" />
        <mxCell id="1" parent="0" />
        <mxCell id="A2qxvLJv0S8nohmWfQuG-1" value="" style="shape=ellipse;html=1;fillColor=strokeColor;strokeWidth=2;verticalLabelPosition=bottom;verticalAlignment=top;perimeter=ellipsePerimeter;" vertex="1" parent="1">
          <mxGeometry x="220" y="30" width="40" height="40" as="geometry" />
        </mxCell>
        <mxCell id="A2qxvLJv0S8nohmWfQuG-2" value="Szenario 1 laden" style="shape=rect;html=1;rounded=1;whiteSpace=wrap;align=center;" vertex="1" parent="1">
          <mxGeometry x="160" y="140" width="160" height="80" as="geometry" />
        </mxCell>
        <mxCell id="A2qxvLJv0S8nohmWfQuG-3" value="Server Starten" style="shape=rect;html=1;rounded=1;whiteSpace=wrap;align=center;" vertex="1" parent="1">
          <mxGeometry x="160" y="270" width="160" height="80" as="geometry" />
        </mxCell>
        <mxCell id="A2qxvLJv0S8nohmWfQuG-4" value="Warten" style="shape=rect;html=1;rounded=1;whiteSpace=wrap;align=center;" vertex="1" parent="1">
          <mxGeometry x="160" y="400" width="160" height="80" as="geometry" />
        </mxCell>
        <mxCell id="A2qxvLJv0S8nohmWfQuG-5" value="Request (Anfrage)" style="html=1;shape=mxgraph.sysml.accEvent;strokeWidth=2;whiteSpace=wrap;align=center;" vertex="1" parent="1">
          <mxGeometry x="160" y="530" width="160" height="80" as="geometry" />
        </mxCell>
        <mxCell id="A2qxvLJv0S8nohmWfQuG-7" value="" style="shape=rhombus;html=1;verticalLabelPosition=bottom;verticalAlignment=top;" vertex="1" parent="1">
          <mxGeometry x="220" y="680" width="40" height="40" as="geometry" />
        </mxCell>
        <mxCell id="A2qxvLJv0S8nohmWfQuG-8" value="" style="edgeStyle=elbowEdgeStyle;html=1;elbow=horizontal;align=right;verticalAlign=bottom;endArrow=none;rounded=0;labelBackgroundColor=none;startArrow=open;startSize=12;" edge="1" source="A2qxvLJv0S8nohmWfQuG-7" parent="1" target="A2qxvLJv0S8nohmWfQuG-5">
          <mxGeometry relative="1" as="geometry">
            <mxPoint x="250" y="840" as="targetPoint" />
          </mxGeometry>
        </mxCell>
        <mxCell id="A2qxvLJv0S8nohmWfQuG-9" value="[GET]" style="edgeStyle=elbowEdgeStyle;html=1;elbow=horizontal;verticalAlign=bottom;endArrow=open;rounded=0;labelBackgroundColor=none;endSize=12;entryX=0.123;entryY=0.511;entryDx=0;entryDy=0;entryPerimeter=0;" edge="1" parent="1" target="A2qxvLJv0S8nohmWfQuG-12">
          <mxGeometry relative="1" as="geometry">
            <mxPoint x="430" y="690" as="targetPoint" />
            <mxPoint x="260" y="700" as="sourcePoint" />
            <Array as="points">
              <mxPoint x="360" y="700" />
            </Array>
          </mxGeometry>
        </mxCell>
        <mxCell id="A2qxvLJv0S8nohmWfQuG-10" value="[POST]" style="edgeStyle=elbowEdgeStyle;html=1;elbow=vertical;verticalAlign=bottom;endArrow=open;rounded=0;labelBackgroundColor=none;endSize=12;" edge="1" source="A2qxvLJv0S8nohmWfQuG-7" parent="1" target="A2qxvLJv0S8nohmWfQuG-17">
          <mxGeometry relative="1" as="geometry">
            <mxPoint x="150" y="900" as="targetPoint" />
          </mxGeometry>
        </mxCell>
        <mxCell id="A2qxvLJv0S8nohmWfQuG-11" value="[else]" style="edgeStyle=none;html=1;endArrow=open;endSize=12;verticalAlign=top;labelBackgroundColor=none;rounded=0;" edge="1" parent="1" source="A2qxvLJv0S8nohmWfQuG-7" target="A2qxvLJv0S8nohmWfQuG-21">
          <mxGeometry width="160" relative="1" as="geometry">
            <mxPoint x="230" y="1000" as="sourcePoint" />
            <mxPoint x="240" y="800" as="targetPoint" />
          </mxGeometry>
        </mxCell>
        <mxCell id="A2qxvLJv0S8nohmWfQuG-14" value="[/connect]" style="edgeStyle=elbowEdgeStyle;html=1;elbow=vertical;verticalAlign=bottom;endArrow=open;rounded=0;labelBackgroundColor=none;endSize=12;entryX=0.644;entryY=0.052;entryDx=0;entryDy=0;entryPerimeter=0;" edge="1" source="A2qxvLJv0S8nohmWfQuG-12" parent="1" target="A2qxvLJv0S8nohmWfQuG-20">
          <mxGeometry relative="1" as="geometry">
            <mxPoint x="690" y="910" as="targetPoint" />
            <Array as="points">
              <mxPoint x="650" y="700" />
            </Array>
          </mxGeometry>
        </mxCell>
        <mxCell id="A2qxvLJv0S8nohmWfQuG-15" value="[/get-messages]" style="edgeStyle=elbowEdgeStyle;html=1;elbow=vertical;verticalAlign=bottom;endArrow=open;rounded=0;labelBackgroundColor=none;endSize=12;exitX=1;exitY=0.5;exitDx=0;exitDy=0;" edge="1" source="A2qxvLJv0S8nohmWfQuG-12" parent="1" target="A2qxvLJv0S8nohmWfQuG-20">
          <mxGeometry relative="1" as="geometry">
            <mxPoint x="450" y="1000" as="targetPoint" />
            <Array as="points">
              <mxPoint x="570" y="780" />
            </Array>
          </mxGeometry>
        </mxCell>
        <mxCell id="A2qxvLJv0S8nohmWfQuG-16" value="[else]" style="edgeStyle=elbowEdgeStyle;html=1;elbow=vertical;verticalAlign=bottom;endArrow=open;rounded=0;labelBackgroundColor=none;endSize=12;" edge="1" parent="1" source="A2qxvLJv0S8nohmWfQuG-12" target="A2qxvLJv0S8nohmWfQuG-21">
          <mxGeometry relative="1" as="geometry">
            <mxPoint x="300" y="800" as="targetPoint" />
            <mxPoint x="440" y="710" as="sourcePoint" />
            <Array as="points">
              <mxPoint x="450" y="840" />
            </Array>
          </mxGeometry>
        </mxCell>
        <mxCell id="A2qxvLJv0S8nohmWfQuG-17" value="" style="shape=rhombus;html=1;verticalLabelPosition=bottom;verticalAlignment=top;" vertex="1" parent="1">
          <mxGeometry x="50" y="680" width="40" height="40" as="geometry" />
        </mxCell>
        <mxCell id="A2qxvLJv0S8nohmWfQuG-18" value="[/message]" style="edgeStyle=elbowEdgeStyle;html=1;elbow=vertical;verticalAlign=bottom;endArrow=open;rounded=0;labelBackgroundColor=none;endSize=12;exitX=0;exitY=0.5;exitDx=0;exitDy=0;" edge="1" parent="1" source="A2qxvLJv0S8nohmWfQuG-17" target="A2qxvLJv0S8nohmWfQuG-20">
          <mxGeometry relative="1" as="geometry">
            <mxPoint x="140" y="1080" as="targetPoint" />
            <Array as="points">
              <mxPoint x="50" y="940" />
            </Array>
          </mxGeometry>
        </mxCell>
        <mxCell id="A2qxvLJv0S8nohmWfQuG-19" value="[else]" style="edgeStyle=elbowEdgeStyle;html=1;elbow=vertical;verticalAlign=bottom;endArrow=open;rounded=0;labelBackgroundColor=none;endSize=12;exitX=0.5;exitY=1;exitDx=0;exitDy=0;" edge="1" parent="1" source="A2qxvLJv0S8nohmWfQuG-17" target="A2qxvLJv0S8nohmWfQuG-21">
          <mxGeometry relative="1" as="geometry">
            <mxPoint x="160" y="800" as="targetPoint" />
            <mxPoint x="150" y="1000" as="sourcePoint" />
            <Array as="points">
              <mxPoint x="130" y="840" />
            </Array>
          </mxGeometry>
        </mxCell>
        <mxCell id="A2qxvLJv0S8nohmWfQuG-20" value="successful respond with payload" style="shape=rect;html=1;rounded=1;whiteSpace=wrap;align=center;" vertex="1" parent="1">
          <mxGeometry x="500" y="900" width="160" height="80" as="geometry" />
        </mxCell>
        <mxCell id="A2qxvLJv0S8nohmWfQuG-21" value="Respond with error" style="shape=rect;html=1;rounded=1;whiteSpace=wrap;align=center;" vertex="1" parent="1">
          <mxGeometry x="160" y="800" width="160" height="80" as="geometry" />
        </mxCell>
        <mxCell id="A2qxvLJv0S8nohmWfQuG-22" value="" style="edgeStyle=elbowEdgeStyle;html=1;elbow=horizontal;align=right;verticalAlign=bottom;endArrow=none;rounded=0;labelBackgroundColor=none;startArrow=open;startSize=12;" edge="1" parent="1" source="A2qxvLJv0S8nohmWfQuG-5" target="A2qxvLJv0S8nohmWfQuG-4">
          <mxGeometry relative="1" as="geometry">
            <mxPoint x="260" y="760" as="targetPoint" />
            <mxPoint x="260" y="890" as="sourcePoint" />
            <Array as="points">
              <mxPoint x="210" y="610" />
            </Array>
          </mxGeometry>
        </mxCell>
        <mxCell id="A2qxvLJv0S8nohmWfQuG-23" value="" style="edgeStyle=elbowEdgeStyle;html=1;elbow=horizontal;align=right;verticalAlign=bottom;endArrow=none;rounded=0;labelBackgroundColor=none;startArrow=open;startSize=12;" edge="1" parent="1" source="A2qxvLJv0S8nohmWfQuG-4" target="A2qxvLJv0S8nohmWfQuG-3">
          <mxGeometry relative="1" as="geometry">
            <mxPoint x="210" y="440" as="targetPoint" />
            <mxPoint x="210" y="505" as="sourcePoint" />
            <Array as="points">
              <mxPoint x="210" y="465" />
            </Array>
          </mxGeometry>
        </mxCell>
        <mxCell id="A2qxvLJv0S8nohmWfQuG-24" value="" style="edgeStyle=elbowEdgeStyle;html=1;elbow=horizontal;align=right;verticalAlign=bottom;endArrow=none;rounded=0;labelBackgroundColor=none;startArrow=open;startSize=12;" edge="1" parent="1" source="A2qxvLJv0S8nohmWfQuG-3" target="A2qxvLJv0S8nohmWfQuG-2">
          <mxGeometry relative="1" as="geometry">
            <mxPoint x="220" y="460" as="targetPoint" />
            <mxPoint x="220" y="515" as="sourcePoint" />
            <Array as="points">
              <mxPoint x="230" y="280" />
            </Array>
          </mxGeometry>
        </mxCell>
        <mxCell id="A2qxvLJv0S8nohmWfQuG-25" value="" style="edgeStyle=elbowEdgeStyle;html=1;elbow=horizontal;align=right;verticalAlign=bottom;endArrow=none;rounded=0;labelBackgroundColor=none;startArrow=open;startSize=12;" edge="1" parent="1" source="A2qxvLJv0S8nohmWfQuG-2" target="A2qxvLJv0S8nohmWfQuG-1">
          <mxGeometry relative="1" as="geometry">
            <mxPoint x="220" y="350" as="targetPoint" />
            <mxPoint x="220" y="380" as="sourcePoint" />
            <Array as="points">
              <mxPoint x="240" y="220" />
            </Array>
          </mxGeometry>
        </mxCell>
        <mxCell id="A2qxvLJv0S8nohmWfQuG-12" value="" style="shape=rhombus;html=1;verticalLabelPosition=bottom;verticalAlignment=top;" vertex="1" parent="1">
          <mxGeometry x="430" y="680" width="40" height="40" as="geometry" />
        </mxCell>
        <mxCell id="A2qxvLJv0S8nohmWfQuG-28" value="" style="html=1;shape=mxgraph.sysml.actFinal;strokeWidth=2;verticalLabelPosition=bottom;verticalAlignment=top;" vertex="1" parent="1">
          <mxGeometry x="220" y="1020" width="40" height="40" as="geometry" />
        </mxCell>
        <mxCell id="A2qxvLJv0S8nohmWfQuG-29" value="" style="edgeStyle=elbowEdgeStyle;html=1;elbow=horizontal;align=right;verticalAlign=bottom;endArrow=none;rounded=0;labelBackgroundColor=none;startArrow=open;startSize=12;" edge="1" parent="1" source="A2qxvLJv0S8nohmWfQuG-28" target="A2qxvLJv0S8nohmWfQuG-21">
          <mxGeometry relative="1" as="geometry">
            <mxPoint x="429" y="1010" as="targetPoint" />
            <mxPoint x="429" y="1060" as="sourcePoint" />
            <Array as="points">
              <mxPoint x="240" y="940" />
            </Array>
          </mxGeometry>
        </mxCell>
        <mxCell id="A2qxvLJv0S8nohmWfQuG-30" value="" style="edgeStyle=elbowEdgeStyle;html=1;elbow=horizontal;align=right;verticalAlign=bottom;endArrow=none;rounded=0;labelBackgroundColor=none;startArrow=open;startSize=12;entryX=0.5;entryY=1;entryDx=0;entryDy=0;exitX=1;exitY=0.5;exitDx=0;exitDy=0;exitPerimeter=0;" edge="1" parent="1" source="A2qxvLJv0S8nohmWfQuG-28" target="A2qxvLJv0S8nohmWfQuG-20">
          <mxGeometry relative="1" as="geometry">
            <mxPoint x="430" y="1060" as="targetPoint" />
            <mxPoint x="430" y="1110" as="sourcePoint" />
            <Array as="points">
              <mxPoint x="580" y="1030" />
            </Array>
          </mxGeometry>
        </mxCell>
      </root>
    </mxGraphModel>
  </diagram>
</mxfile>
